<mxfile host="app.diagrams.net" modified="2024-05-20T13:16:18.681Z" agent="Mozilla/5.0 (X11; Linux x86_64) AppleWebKit/537.36 (KHTML, like Gecko) Chrome/124.0.0.0 Safari/537.36" etag="nzIH6FV_reLoslhKkhF-" version="24.4.4" type="google">
  <diagram name="DER" id="Sy-tzXro4jiePF3tBgkx">
    <mxGraphModel grid="1" page="1" gridSize="10" guides="1" tooltips="1" connect="1" arrows="1" fold="1" pageScale="1" pageWidth="1169" pageHeight="827" math="0" shadow="0">
      <root>
        <mxCell id="0" />
        <mxCell id="1" parent="0" />
        <mxCell id="wFH0cCrwJBhisUXVBjvw-21" value="" style="rounded=0;whiteSpace=wrap;html=1;rotation=-90;fillColor=none;strokeColor=#b85450;strokeWidth=3;" vertex="1" parent="1">
          <mxGeometry x="-930" y="690" width="933.5" height="386" as="geometry" />
        </mxCell>
        <mxCell id="wFH0cCrwJBhisUXVBjvw-24" value="" style="rounded=0;whiteSpace=wrap;html=1;fillColor=none;strokeColor=#d6b656;strokeWidth=4;" vertex="1" parent="1">
          <mxGeometry x="-260" y="260" width="360" height="430" as="geometry" />
        </mxCell>
        <mxCell id="wFH0cCrwJBhisUXVBjvw-17" value="" style="whiteSpace=wrap;html=1;aspect=fixed;fillColor=none;strokeWidth=2;strokeColor=#1b935f;" vertex="1" parent="1">
          <mxGeometry x="-10" y="820" width="477" height="477" as="geometry" />
        </mxCell>
        <mxCell id="fKoAP8AsqQsR1DDhjYJr-1" value="user" style="swimlane;fontStyle=0;childLayout=stackLayout;horizontal=1;startSize=30;horizontalStack=0;resizeParent=1;resizeParentMax=0;resizeLast=0;collapsible=1;marginBottom=0;whiteSpace=wrap;html=1;fillColor=#f5f5f5;fontColor=#333333;strokeColor=#666666;" vertex="1" parent="1">
          <mxGeometry x="-190" y="490" width="140" height="180" as="geometry">
            <mxRectangle x="470" y="190" width="60" height="30" as="alternateBounds" />
          </mxGeometry>
        </mxCell>
        <mxCell id="fKoAP8AsqQsR1DDhjYJr-2" value="id" style="text;strokeColor=#9673a6;fillColor=#e1d5e7;align=left;verticalAlign=middle;spacingLeft=4;spacingRight=4;overflow=hidden;points=[[0,0.5],[1,0.5]];portConstraint=eastwest;rotatable=0;whiteSpace=wrap;html=1;" vertex="1" parent="fKoAP8AsqQsR1DDhjYJr-1">
          <mxGeometry y="30" width="140" height="30" as="geometry" />
        </mxCell>
        <mxCell id="fKoAP8AsqQsR1DDhjYJr-3" value="email" style="text;strokeColor=#9673a6;fillColor=#e1d5e7;align=left;verticalAlign=middle;spacingLeft=4;spacingRight=4;overflow=hidden;points=[[0,0.5],[1,0.5]];portConstraint=eastwest;rotatable=0;whiteSpace=wrap;html=1;" vertex="1" parent="fKoAP8AsqQsR1DDhjYJr-1">
          <mxGeometry y="60" width="140" height="30" as="geometry" />
        </mxCell>
        <mxCell id="fKoAP8AsqQsR1DDhjYJr-4" value="password" style="text;strokeColor=#9673a6;fillColor=#e1d5e7;align=left;verticalAlign=middle;spacingLeft=4;spacingRight=4;overflow=hidden;points=[[0,0.5],[1,0.5]];portConstraint=eastwest;rotatable=0;whiteSpace=wrap;html=1;" vertex="1" parent="fKoAP8AsqQsR1DDhjYJr-1">
          <mxGeometry y="90" width="140" height="30" as="geometry" />
        </mxCell>
        <mxCell id="fKoAP8AsqQsR1DDhjYJr-5" value="name" style="text;strokeColor=#9673a6;fillColor=#e1d5e7;align=left;verticalAlign=middle;spacingLeft=4;spacingRight=4;overflow=hidden;points=[[0,0.5],[1,0.5]];portConstraint=eastwest;rotatable=0;whiteSpace=wrap;html=1;" vertex="1" parent="fKoAP8AsqQsR1DDhjYJr-1">
          <mxGeometry y="120" width="140" height="30" as="geometry" />
        </mxCell>
        <mxCell id="fKoAP8AsqQsR1DDhjYJr-6" value="last_name" style="text;strokeColor=#9673a6;fillColor=#e1d5e7;align=left;verticalAlign=middle;spacingLeft=4;spacingRight=4;overflow=hidden;points=[[0,0.5],[1,0.5]];portConstraint=eastwest;rotatable=0;whiteSpace=wrap;html=1;" vertex="1" parent="fKoAP8AsqQsR1DDhjYJr-1">
          <mxGeometry y="150" width="140" height="30" as="geometry" />
        </mxCell>
        <mxCell id="fKoAP8AsqQsR1DDhjYJr-8" value="rutine" style="swimlane;fontStyle=0;childLayout=stackLayout;horizontal=1;startSize=30;horizontalStack=0;resizeParent=1;resizeParentMax=0;resizeLast=0;collapsible=1;marginBottom=0;whiteSpace=wrap;html=1;fillColor=#f5f5f5;fontColor=#333333;strokeColor=#666666;" vertex="1" parent="1">
          <mxGeometry x="-620" y="780" width="140" height="150" as="geometry" />
        </mxCell>
        <mxCell id="fKoAP8AsqQsR1DDhjYJr-9" value="id" style="text;strokeColor=#9673a6;fillColor=#e1d5e7;align=left;verticalAlign=middle;spacingLeft=4;spacingRight=4;overflow=hidden;points=[[0,0.5],[1,0.5]];portConstraint=eastwest;rotatable=0;whiteSpace=wrap;html=1;" vertex="1" parent="fKoAP8AsqQsR1DDhjYJr-8">
          <mxGeometry y="30" width="140" height="30" as="geometry" />
        </mxCell>
        <mxCell id="fKoAP8AsqQsR1DDhjYJr-10" value="id_user" style="text;strokeColor=#9673a6;fillColor=#e1d5e7;align=left;verticalAlign=middle;spacingLeft=4;spacingRight=4;overflow=hidden;points=[[0,0.5],[1,0.5]];portConstraint=eastwest;rotatable=0;whiteSpace=wrap;html=1;" vertex="1" parent="fKoAP8AsqQsR1DDhjYJr-8">
          <mxGeometry y="60" width="140" height="30" as="geometry" />
        </mxCell>
        <mxCell id="fKoAP8AsqQsR1DDhjYJr-11" value="id_dificulty_level" style="text;strokeColor=#9673a6;fillColor=#e1d5e7;align=left;verticalAlign=middle;spacingLeft=4;spacingRight=4;overflow=hidden;points=[[0,0.5],[1,0.5]];portConstraint=eastwest;rotatable=0;whiteSpace=wrap;html=1;" vertex="1" parent="fKoAP8AsqQsR1DDhjYJr-8">
          <mxGeometry y="90" width="140" height="30" as="geometry" />
        </mxCell>
        <mxCell id="fKoAP8AsqQsR1DDhjYJr-12" value="id_rutine_type" style="text;strokeColor=#9673a6;fillColor=#e1d5e7;align=left;verticalAlign=middle;spacingLeft=4;spacingRight=4;overflow=hidden;points=[[0,0.5],[1,0.5]];portConstraint=eastwest;rotatable=0;whiteSpace=wrap;html=1;" vertex="1" parent="fKoAP8AsqQsR1DDhjYJr-8">
          <mxGeometry y="120" width="140" height="30" as="geometry" />
        </mxCell>
        <mxCell id="fKoAP8AsqQsR1DDhjYJr-14" value="exercise" style="swimlane;fontStyle=0;childLayout=stackLayout;horizontal=1;startSize=30;horizontalStack=0;resizeParent=1;resizeParentMax=0;resizeLast=0;collapsible=1;marginBottom=0;whiteSpace=wrap;html=1;fillColor=#f5f5f5;fontColor=#333333;strokeColor=#666666;" vertex="1" parent="1">
          <mxGeometry x="40" y="863" width="140" height="180" as="geometry">
            <mxRectangle x="470" y="190" width="60" height="30" as="alternateBounds" />
          </mxGeometry>
        </mxCell>
        <mxCell id="fKoAP8AsqQsR1DDhjYJr-15" value="id" style="text;strokeColor=#9673a6;fillColor=#e1d5e7;align=left;verticalAlign=middle;spacingLeft=4;spacingRight=4;overflow=hidden;points=[[0,0.5],[1,0.5]];portConstraint=eastwest;rotatable=0;whiteSpace=wrap;html=1;" vertex="1" parent="fKoAP8AsqQsR1DDhjYJr-14">
          <mxGeometry y="30" width="140" height="30" as="geometry" />
        </mxCell>
        <mxCell id="fKoAP8AsqQsR1DDhjYJr-16" value="id_type_exercise" style="text;strokeColor=#9673a6;fillColor=#e1d5e7;align=left;verticalAlign=middle;spacingLeft=4;spacingRight=4;overflow=hidden;points=[[0,0.5],[1,0.5]];portConstraint=eastwest;rotatable=0;whiteSpace=wrap;html=1;" vertex="1" parent="fKoAP8AsqQsR1DDhjYJr-14">
          <mxGeometry y="60" width="140" height="30" as="geometry" />
        </mxCell>
        <mxCell id="fKoAP8AsqQsR1DDhjYJr-17" value="name" style="text;strokeColor=#9673a6;fillColor=#e1d5e7;align=left;verticalAlign=middle;spacingLeft=4;spacingRight=4;overflow=hidden;points=[[0,0.5],[1,0.5]];portConstraint=eastwest;rotatable=0;whiteSpace=wrap;html=1;" vertex="1" parent="fKoAP8AsqQsR1DDhjYJr-14">
          <mxGeometry y="90" width="140" height="30" as="geometry" />
        </mxCell>
        <mxCell id="fKoAP8AsqQsR1DDhjYJr-18" value="id_dificulty_level" style="text;strokeColor=#9673a6;fillColor=#e1d5e7;align=left;verticalAlign=middle;spacingLeft=4;spacingRight=4;overflow=hidden;points=[[0,0.5],[1,0.5]];portConstraint=eastwest;rotatable=0;whiteSpace=wrap;html=1;" vertex="1" parent="fKoAP8AsqQsR1DDhjYJr-14">
          <mxGeometry y="120" width="140" height="30" as="geometry" />
        </mxCell>
        <mxCell id="fKoAP8AsqQsR1DDhjYJr-19" value="id_user" style="text;strokeColor=#9673a6;fillColor=#e1d5e7;align=left;verticalAlign=middle;spacingLeft=4;spacingRight=4;overflow=hidden;points=[[0,0.5],[1,0.5]];portConstraint=eastwest;rotatable=0;whiteSpace=wrap;html=1;" vertex="1" parent="fKoAP8AsqQsR1DDhjYJr-14">
          <mxGeometry y="150" width="140" height="30" as="geometry" />
        </mxCell>
        <mxCell id="fKoAP8AsqQsR1DDhjYJr-20" value="trainer" style="swimlane;fontStyle=0;childLayout=stackLayout;horizontal=1;startSize=30;horizontalStack=0;resizeParent=1;resizeParentMax=0;resizeLast=0;collapsible=1;marginBottom=0;whiteSpace=wrap;html=1;fillColor=#f5f5f5;fontColor=#333333;strokeColor=#666666;" vertex="1" parent="1">
          <mxGeometry x="-237" y="298" width="140" height="150" as="geometry">
            <mxRectangle x="470" y="190" width="60" height="30" as="alternateBounds" />
          </mxGeometry>
        </mxCell>
        <mxCell id="fKoAP8AsqQsR1DDhjYJr-21" value="id" style="text;align=left;verticalAlign=middle;spacingLeft=4;spacingRight=4;overflow=hidden;points=[[0,0.5],[1,0.5]];portConstraint=eastwest;rotatable=0;whiteSpace=wrap;html=1;fillColor=#e1d5e7;strokeColor=#9673a6;" vertex="1" parent="fKoAP8AsqQsR1DDhjYJr-20">
          <mxGeometry y="30" width="140" height="30" as="geometry" />
        </mxCell>
        <mxCell id="fKoAP8AsqQsR1DDhjYJr-22" value="id_user" style="text;align=left;verticalAlign=middle;spacingLeft=4;spacingRight=4;overflow=hidden;points=[[0,0.5],[1,0.5]];portConstraint=eastwest;rotatable=0;whiteSpace=wrap;html=1;fillColor=#e1d5e7;strokeColor=#9673a6;" vertex="1" parent="fKoAP8AsqQsR1DDhjYJr-20">
          <mxGeometry y="60" width="140" height="30" as="geometry" />
        </mxCell>
        <mxCell id="fKoAP8AsqQsR1DDhjYJr-23" value="is_verify?" style="text;align=left;verticalAlign=middle;spacingLeft=4;spacingRight=4;overflow=hidden;points=[[0,0.5],[1,0.5]];portConstraint=eastwest;rotatable=0;whiteSpace=wrap;html=1;fillColor=#e1d5e7;strokeColor=#9673a6;" vertex="1" parent="fKoAP8AsqQsR1DDhjYJr-20">
          <mxGeometry y="90" width="140" height="30" as="geometry" />
        </mxCell>
        <mxCell id="fKoAP8AsqQsR1DDhjYJr-24" value="rate" style="text;align=left;verticalAlign=middle;spacingLeft=4;spacingRight=4;overflow=hidden;points=[[0,0.5],[1,0.5]];portConstraint=eastwest;rotatable=0;whiteSpace=wrap;html=1;fillColor=#e1d5e7;strokeColor=#9673a6;" vertex="1" parent="fKoAP8AsqQsR1DDhjYJr-20">
          <mxGeometry y="120" width="140" height="30" as="geometry" />
        </mxCell>
        <mxCell id="fKoAP8AsqQsR1DDhjYJr-25" value="progress" style="swimlane;fontStyle=0;childLayout=stackLayout;horizontal=1;startSize=30;horizontalStack=0;resizeParent=1;resizeParentMax=0;resizeLast=0;collapsible=1;marginBottom=0;whiteSpace=wrap;html=1;fillColor=#f5f5f5;fontColor=#333333;strokeColor=#666666;" vertex="1" parent="1">
          <mxGeometry x="133" y="480" width="140" height="180" as="geometry">
            <mxRectangle x="470" y="190" width="60" height="30" as="alternateBounds" />
          </mxGeometry>
        </mxCell>
        <mxCell id="fKoAP8AsqQsR1DDhjYJr-26" value="id" style="text;strokeColor=#9673a6;fillColor=#e1d5e7;align=left;verticalAlign=middle;spacingLeft=4;spacingRight=4;overflow=hidden;points=[[0,0.5],[1,0.5]];portConstraint=eastwest;rotatable=0;whiteSpace=wrap;html=1;" vertex="1" parent="fKoAP8AsqQsR1DDhjYJr-25">
          <mxGeometry y="30" width="140" height="30" as="geometry" />
        </mxCell>
        <mxCell id="6YS-4ABOg-kDLMqf2TI8-1" value="id_exercise" style="text;strokeColor=#9673a6;fillColor=#e1d5e7;align=left;verticalAlign=middle;spacingLeft=4;spacingRight=4;overflow=hidden;points=[[0,0.5],[1,0.5]];portConstraint=eastwest;rotatable=0;whiteSpace=wrap;html=1;" vertex="1" parent="fKoAP8AsqQsR1DDhjYJr-25">
          <mxGeometry y="60" width="140" height="30" as="geometry" />
        </mxCell>
        <mxCell id="6YS-4ABOg-kDLMqf2TI8-2" value="id_user" style="text;strokeColor=#9673a6;fillColor=#e1d5e7;align=left;verticalAlign=middle;spacingLeft=4;spacingRight=4;overflow=hidden;points=[[0,0.5],[1,0.5]];portConstraint=eastwest;rotatable=0;whiteSpace=wrap;html=1;" vertex="1" parent="fKoAP8AsqQsR1DDhjYJr-25">
          <mxGeometry y="90" width="140" height="30" as="geometry" />
        </mxCell>
        <mxCell id="fBIuaLrPlhI0Qv7ydNMc-5" value="weight" style="text;strokeColor=#9673a6;fillColor=#e1d5e7;align=left;verticalAlign=middle;spacingLeft=4;spacingRight=4;overflow=hidden;points=[[0,0.5],[1,0.5]];portConstraint=eastwest;rotatable=0;whiteSpace=wrap;html=1;" vertex="1" parent="fKoAP8AsqQsR1DDhjYJr-25">
          <mxGeometry y="120" width="140" height="30" as="geometry" />
        </mxCell>
        <mxCell id="fBIuaLrPlhI0Qv7ydNMc-6" value="repetitions" style="text;strokeColor=#9673a6;fillColor=#e1d5e7;align=left;verticalAlign=middle;spacingLeft=4;spacingRight=4;overflow=hidden;points=[[0,0.5],[1,0.5]];portConstraint=eastwest;rotatable=0;whiteSpace=wrap;html=1;" vertex="1" parent="fKoAP8AsqQsR1DDhjYJr-25">
          <mxGeometry y="150" width="140" height="30" as="geometry" />
        </mxCell>
        <mxCell id="fKoAP8AsqQsR1DDhjYJr-30" value="dificulty_level" style="swimlane;fontStyle=0;childLayout=stackLayout;horizontal=1;startSize=30;horizontalStack=0;resizeParent=1;resizeParentMax=0;resizeLast=0;collapsible=1;marginBottom=0;whiteSpace=wrap;html=1;fillColor=#f5f5f5;fontColor=#333333;strokeColor=#666666;" vertex="1" parent="1">
          <mxGeometry x="-190" y="1200" width="140" height="90" as="geometry">
            <mxRectangle x="470" y="190" width="60" height="30" as="alternateBounds" />
          </mxGeometry>
        </mxCell>
        <mxCell id="fKoAP8AsqQsR1DDhjYJr-31" value="id" style="text;strokeColor=#9673a6;fillColor=#e1d5e7;align=left;verticalAlign=middle;spacingLeft=4;spacingRight=4;overflow=hidden;points=[[0,0.5],[1,0.5]];portConstraint=eastwest;rotatable=0;whiteSpace=wrap;html=1;fontColor=#333333;" vertex="1" parent="fKoAP8AsqQsR1DDhjYJr-30">
          <mxGeometry y="30" width="140" height="30" as="geometry" />
        </mxCell>
        <mxCell id="sfmUpo5nb_P3Y5WMEgTb-9" value="name" style="text;strokeColor=#9673a6;fillColor=#e1d5e7;align=left;verticalAlign=middle;spacingLeft=4;spacingRight=4;overflow=hidden;points=[[0,0.5],[1,0.5]];portConstraint=eastwest;rotatable=0;whiteSpace=wrap;html=1;" vertex="1" parent="fKoAP8AsqQsR1DDhjYJr-30">
          <mxGeometry y="60" width="140" height="30" as="geometry" />
        </mxCell>
        <mxCell id="fKoAP8AsqQsR1DDhjYJr-32" value="exercise_type" style="swimlane;fontStyle=0;childLayout=stackLayout;horizontal=1;startSize=30;horizontalStack=0;resizeParent=1;resizeParentMax=0;resizeLast=0;collapsible=1;marginBottom=0;whiteSpace=wrap;html=1;fillColor=#f5f5f5;fontColor=#333333;strokeColor=#666666;" vertex="1" parent="1">
          <mxGeometry x="80" y="1140" width="140" height="90" as="geometry">
            <mxRectangle x="470" y="190" width="60" height="30" as="alternateBounds" />
          </mxGeometry>
        </mxCell>
        <mxCell id="fKoAP8AsqQsR1DDhjYJr-33" value="id" style="text;strokeColor=#9673a6;fillColor=#e1d5e7;align=left;verticalAlign=middle;spacingLeft=4;spacingRight=4;overflow=hidden;points=[[0,0.5],[1,0.5]];portConstraint=eastwest;rotatable=0;whiteSpace=wrap;html=1;" vertex="1" parent="fKoAP8AsqQsR1DDhjYJr-32">
          <mxGeometry y="30" width="140" height="30" as="geometry" />
        </mxCell>
        <mxCell id="uVKZ8VX52OgUNo_rHZwQ-2" value="name" style="text;strokeColor=#9673a6;fillColor=#e1d5e7;align=left;verticalAlign=middle;spacingLeft=4;spacingRight=4;overflow=hidden;points=[[0,0.5],[1,0.5]];portConstraint=eastwest;rotatable=0;whiteSpace=wrap;html=1;" vertex="1" parent="fKoAP8AsqQsR1DDhjYJr-32">
          <mxGeometry y="60" width="140" height="30" as="geometry" />
        </mxCell>
        <mxCell id="fKoAP8AsqQsR1DDhjYJr-34" value="" style="endArrow=classic;html=1;rounded=0;exitX=1;exitY=0;exitDx=0;exitDy=0;entryX=0.362;entryY=0.001;entryDx=0;entryDy=0;entryPerimeter=0;exitPerimeter=0;" edge="1" parent="1" source="fKoAP8AsqQsR1DDhjYJr-6" target="fKoAP8AsqQsR1DDhjYJr-14">
          <mxGeometry width="50" height="50" relative="1" as="geometry">
            <mxPoint x="-92.51999999999998" y="664.02" as="sourcePoint" />
            <mxPoint x="30" y="730" as="targetPoint" />
            <Array as="points">
              <mxPoint x="90" y="640" />
            </Array>
          </mxGeometry>
        </mxCell>
        <mxCell id="fKoAP8AsqQsR1DDhjYJr-35" value="muscle_excersice" style="swimlane;fontStyle=0;childLayout=stackLayout;horizontal=1;startSize=30;horizontalStack=0;resizeParent=1;resizeParentMax=0;resizeLast=0;collapsible=1;marginBottom=0;whiteSpace=wrap;html=1;fillColor=#f5f5f5;fontColor=#333333;strokeColor=#666666;" vertex="1" parent="1">
          <mxGeometry x="256" y="1140" width="137" height="90" as="geometry">
            <mxRectangle x="470" y="190" width="60" height="30" as="alternateBounds" />
          </mxGeometry>
        </mxCell>
        <mxCell id="fKoAP8AsqQsR1DDhjYJr-36" value="id" style="text;strokeColor=#9673a6;fillColor=#e1d5e7;align=left;verticalAlign=middle;spacingLeft=4;spacingRight=4;overflow=hidden;points=[[0,0.5],[1,0.5]];portConstraint=eastwest;rotatable=0;whiteSpace=wrap;html=1;" vertex="1" parent="fKoAP8AsqQsR1DDhjYJr-35">
          <mxGeometry y="30" width="137" height="30" as="geometry" />
        </mxCell>
        <mxCell id="fKoAP8AsqQsR1DDhjYJr-37" value="name" style="text;strokeColor=#9673a6;fillColor=#e1d5e7;align=left;verticalAlign=middle;spacingLeft=4;spacingRight=4;overflow=hidden;points=[[0,0.5],[1,0.5]];portConstraint=eastwest;rotatable=0;whiteSpace=wrap;html=1;" vertex="1" parent="fKoAP8AsqQsR1DDhjYJr-35">
          <mxGeometry y="60" width="137" height="30" as="geometry" />
        </mxCell>
        <mxCell id="6YS-4ABOg-kDLMqf2TI8-3" value="" style="endArrow=classic;html=1;rounded=0;entryX=0;entryY=0.5;entryDx=0;entryDy=0;" edge="1" parent="1" target="6YS-4ABOg-kDLMqf2TI8-1">
          <mxGeometry width="50" height="50" relative="1" as="geometry">
            <mxPoint x="-50" y="555" as="sourcePoint" />
            <mxPoint x="80" y="555" as="targetPoint" />
          </mxGeometry>
        </mxCell>
        <mxCell id="sfmUpo5nb_P3Y5WMEgTb-1" value="muscle_group" style="swimlane;fontStyle=0;childLayout=stackLayout;horizontal=1;startSize=30;horizontalStack=0;resizeParent=1;resizeParentMax=0;resizeLast=0;collapsible=1;marginBottom=0;whiteSpace=wrap;html=1;fillColor=#f5f5f5;fontColor=#333333;strokeColor=#666666;" vertex="1" parent="1">
          <mxGeometry x="253" y="960" width="140" height="120" as="geometry">
            <mxRectangle x="470" y="190" width="60" height="30" as="alternateBounds" />
          </mxGeometry>
        </mxCell>
        <mxCell id="sfmUpo5nb_P3Y5WMEgTb-2" value="id" style="text;strokeColor=#9673a6;fillColor=#e1d5e7;align=left;verticalAlign=middle;spacingLeft=4;spacingRight=4;overflow=hidden;points=[[0,0.5],[1,0.5]];portConstraint=eastwest;rotatable=0;whiteSpace=wrap;html=1;" vertex="1" parent="sfmUpo5nb_P3Y5WMEgTb-1">
          <mxGeometry y="30" width="140" height="30" as="geometry" />
        </mxCell>
        <mxCell id="sfmUpo5nb_P3Y5WMEgTb-3" value="Id_exercise" style="text;strokeColor=#9673a6;fillColor=#e1d5e7;align=left;verticalAlign=middle;spacingLeft=4;spacingRight=4;overflow=hidden;points=[[0,0.5],[1,0.5]];portConstraint=eastwest;rotatable=0;whiteSpace=wrap;html=1;" vertex="1" parent="sfmUpo5nb_P3Y5WMEgTb-1">
          <mxGeometry y="60" width="140" height="30" as="geometry" />
        </mxCell>
        <mxCell id="sfmUpo5nb_P3Y5WMEgTb-5" value="id_muscle_exercise" style="text;strokeColor=#9673a6;fillColor=#e1d5e7;align=left;verticalAlign=middle;spacingLeft=4;spacingRight=4;overflow=hidden;points=[[0,0.5],[1,0.5]];portConstraint=eastwest;rotatable=0;whiteSpace=wrap;html=1;" vertex="1" parent="sfmUpo5nb_P3Y5WMEgTb-1">
          <mxGeometry y="90" width="140" height="30" as="geometry" />
        </mxCell>
        <mxCell id="6YS-4ABOg-kDLMqf2TI8-7" value="" style="endArrow=classic;html=1;rounded=0;entryX=1.005;entryY=0.151;entryDx=0;entryDy=0;entryPerimeter=0;exitX=0.5;exitY=1;exitDx=0;exitDy=0;" edge="1" parent="1" source="Akn_ElKq22y6azfKkZYL-5" target="fKoAP8AsqQsR1DDhjYJr-14">
          <mxGeometry width="50" height="50" relative="1" as="geometry">
            <mxPoint x="340" y="760" as="sourcePoint" />
            <mxPoint x="130" y="760" as="targetPoint" />
            <Array as="points">
              <mxPoint x="410" y="890" />
            </Array>
          </mxGeometry>
        </mxCell>
        <mxCell id="6YS-4ABOg-kDLMqf2TI8-8" value="" style="endArrow=classic;html=1;rounded=0;exitX=0.75;exitY=1;exitDx=0;exitDy=0;" edge="1" parent="1" source="fKoAP8AsqQsR1DDhjYJr-14">
          <mxGeometry width="50" height="50" relative="1" as="geometry">
            <mxPoint x="110" y="920" as="sourcePoint" />
            <mxPoint x="145" y="1140" as="targetPoint" />
            <Array as="points" />
          </mxGeometry>
        </mxCell>
        <mxCell id="sfmUpo5nb_P3Y5WMEgTb-8" value="" style="endArrow=classic;html=1;rounded=0;exitX=1;exitY=0.5;exitDx=0;exitDy=0;" edge="1" parent="1" source="fKoAP8AsqQsR1DDhjYJr-19">
          <mxGeometry width="50" height="50" relative="1" as="geometry">
            <mxPoint x="-187" y="940" as="sourcePoint" />
            <mxPoint x="250" y="1028" as="targetPoint" />
            <Array as="points" />
          </mxGeometry>
        </mxCell>
        <mxCell id="sfmUpo5nb_P3Y5WMEgTb-6" value="" style="endArrow=classic;html=1;rounded=0;exitX=0.495;exitY=1.048;exitDx=0;exitDy=0;exitPerimeter=0;entryX=0.5;entryY=0;entryDx=0;entryDy=0;" edge="1" parent="1" source="sfmUpo5nb_P3Y5WMEgTb-5" target="fKoAP8AsqQsR1DDhjYJr-35">
          <mxGeometry width="50" height="50" relative="1" as="geometry">
            <mxPoint x="-207" y="1170" as="sourcePoint" />
            <mxPoint x="-157" y="1120" as="targetPoint" />
          </mxGeometry>
        </mxCell>
        <mxCell id="6YS-4ABOg-kDLMqf2TI8-11" value="" style="endArrow=classic;html=1;rounded=0;entryX=0.25;entryY=0;entryDx=0;entryDy=0;exitX=0.587;exitY=0.99;exitDx=0;exitDy=0;exitPerimeter=0;" edge="1" parent="1" source="fKoAP8AsqQsR1DDhjYJr-24" target="fKoAP8AsqQsR1DDhjYJr-1">
          <mxGeometry width="50" height="50" relative="1" as="geometry">
            <mxPoint x="-150" y="450" as="sourcePoint" />
            <mxPoint x="-169" y="480" as="targetPoint" />
          </mxGeometry>
        </mxCell>
        <mxCell id="sfmUpo5nb_P3Y5WMEgTb-11" value="rutine_type" style="swimlane;fontStyle=0;childLayout=stackLayout;horizontal=1;startSize=30;horizontalStack=0;resizeParent=1;resizeParentMax=0;resizeLast=0;collapsible=1;marginBottom=0;whiteSpace=wrap;html=1;fillColor=#f5f5f5;fontColor=#333333;strokeColor=#666666;" vertex="1" parent="1">
          <mxGeometry x="-620" y="1170" width="140" height="90" as="geometry">
            <mxRectangle x="470" y="190" width="60" height="30" as="alternateBounds" />
          </mxGeometry>
        </mxCell>
        <mxCell id="sfmUpo5nb_P3Y5WMEgTb-12" value="id" style="text;strokeColor=#9673a6;fillColor=#e1d5e7;align=left;verticalAlign=middle;spacingLeft=4;spacingRight=4;overflow=hidden;points=[[0,0.5],[1,0.5]];portConstraint=eastwest;rotatable=0;whiteSpace=wrap;html=1;" vertex="1" parent="sfmUpo5nb_P3Y5WMEgTb-11">
          <mxGeometry y="30" width="140" height="30" as="geometry" />
        </mxCell>
        <mxCell id="sfmUpo5nb_P3Y5WMEgTb-13" value="name" style="text;strokeColor=#9673a6;fillColor=#e1d5e7;align=left;verticalAlign=middle;spacingLeft=4;spacingRight=4;overflow=hidden;points=[[0,0.5],[1,0.5]];portConstraint=eastwest;rotatable=0;whiteSpace=wrap;html=1;" vertex="1" parent="sfmUpo5nb_P3Y5WMEgTb-11">
          <mxGeometry y="60" width="140" height="30" as="geometry" />
        </mxCell>
        <mxCell id="6YS-4ABOg-kDLMqf2TI8-16" value="" style="endArrow=classic;html=1;rounded=0;exitX=0.5;exitY=1;exitDx=0;exitDy=0;entryX=0.5;entryY=0;entryDx=0;entryDy=0;" edge="1" parent="1" source="fKoAP8AsqQsR1DDhjYJr-8" target="3xoSgwgY9bkzA2TxnGna-2">
          <mxGeometry width="50" height="50" relative="1" as="geometry">
            <mxPoint x="-692.3400000000001" y="664.3199999999999" as="sourcePoint" />
            <mxPoint x="-472" y="1030" as="targetPoint" />
          </mxGeometry>
        </mxCell>
        <mxCell id="sfmUpo5nb_P3Y5WMEgTb-14" value="pick_rutine" style="swimlane;fontStyle=0;childLayout=stackLayout;horizontal=1;startSize=30;horizontalStack=0;resizeParent=1;resizeParentMax=0;resizeLast=0;collapsible=1;marginBottom=0;whiteSpace=wrap;html=1;fillColor=#f5f5f5;fontColor=#333333;strokeColor=#666666;" vertex="1" parent="1">
          <mxGeometry x="-440" y="795" width="140" height="120" as="geometry">
            <mxRectangle x="470" y="190" width="60" height="30" as="alternateBounds" />
          </mxGeometry>
        </mxCell>
        <mxCell id="sfmUpo5nb_P3Y5WMEgTb-15" value="id" style="text;strokeColor=#9673a6;fillColor=#e1d5e7;align=left;verticalAlign=middle;spacingLeft=4;spacingRight=4;overflow=hidden;points=[[0,0.5],[1,0.5]];portConstraint=eastwest;rotatable=0;whiteSpace=wrap;html=1;" vertex="1" parent="sfmUpo5nb_P3Y5WMEgTb-14">
          <mxGeometry y="30" width="140" height="30" as="geometry" />
        </mxCell>
        <mxCell id="sfmUpo5nb_P3Y5WMEgTb-16" value="id_user" style="text;strokeColor=#9673a6;fillColor=#e1d5e7;align=left;verticalAlign=middle;spacingLeft=4;spacingRight=4;overflow=hidden;points=[[0,0.5],[1,0.5]];portConstraint=eastwest;rotatable=0;whiteSpace=wrap;html=1;" vertex="1" parent="sfmUpo5nb_P3Y5WMEgTb-14">
          <mxGeometry y="60" width="140" height="30" as="geometry" />
        </mxCell>
        <mxCell id="sfmUpo5nb_P3Y5WMEgTb-17" value="id_rutine" style="text;strokeColor=#9673a6;fillColor=#e1d5e7;align=left;verticalAlign=middle;spacingLeft=4;spacingRight=4;overflow=hidden;points=[[0,0.5],[1,0.5]];portConstraint=eastwest;rotatable=0;whiteSpace=wrap;html=1;" vertex="1" parent="sfmUpo5nb_P3Y5WMEgTb-14">
          <mxGeometry y="90" width="140" height="30" as="geometry" />
        </mxCell>
        <mxCell id="sfmUpo5nb_P3Y5WMEgTb-18" value="" style="endArrow=classic;html=1;rounded=0;entryX=1;entryY=0.5;entryDx=0;entryDy=0;exitX=0.568;exitY=1.017;exitDx=0;exitDy=0;exitPerimeter=0;" edge="1" parent="1" source="fKoAP8AsqQsR1DDhjYJr-6" target="sfmUpo5nb_P3Y5WMEgTb-14">
          <mxGeometry width="50" height="50" relative="1" as="geometry">
            <mxPoint x="-117" y="750" as="sourcePoint" />
            <mxPoint x="-407" y="710" as="targetPoint" />
            <Array as="points">
              <mxPoint x="-110" y="855" />
            </Array>
          </mxGeometry>
        </mxCell>
        <mxCell id="sfmUpo5nb_P3Y5WMEgTb-32" value="" style="endArrow=classic;html=1;rounded=0;exitX=1.021;exitY=0.058;exitDx=0;exitDy=0;exitPerimeter=0;" edge="1" parent="1" source="fKoAP8AsqQsR1DDhjYJr-1">
          <mxGeometry width="50" height="50" relative="1" as="geometry">
            <mxPoint x="-156" y="383" as="sourcePoint" />
            <mxPoint x="20" y="410" as="targetPoint" />
            <Array as="points">
              <mxPoint x="20" y="500" />
              <mxPoint x="20" y="470" />
            </Array>
          </mxGeometry>
        </mxCell>
        <mxCell id="sfmUpo5nb_P3Y5WMEgTb-33" value="" style="endArrow=classic;html=1;rounded=0;entryX=0.5;entryY=0;entryDx=0;entryDy=0;exitX=-0.021;exitY=0;exitDx=0;exitDy=0;exitPerimeter=0;" edge="1" parent="1" source="Akn_ElKq22y6azfKkZYL-13" target="fKoAP8AsqQsR1DDhjYJr-8">
          <mxGeometry width="50" height="50" relative="1" as="geometry">
            <mxPoint x="-480" y="650" as="sourcePoint" />
            <mxPoint x="-527" y="470" as="targetPoint" />
            <Array as="points">
              <mxPoint x="-550" y="520" />
            </Array>
          </mxGeometry>
        </mxCell>
        <mxCell id="drKVRC6gpU4FhVPR0BsF-1" value="" style="endArrow=classic;html=1;rounded=0;entryX=0.5;entryY=0;entryDx=0;entryDy=0;" edge="1" parent="1" target="drKVRC6gpU4FhVPR0BsF-3">
          <mxGeometry width="50" height="50" relative="1" as="geometry">
            <mxPoint x="-480" y="920" as="sourcePoint" />
            <mxPoint x="-300" y="910" as="targetPoint" />
            <Array as="points">
              <mxPoint x="-347" y="920" />
            </Array>
          </mxGeometry>
        </mxCell>
        <mxCell id="drKVRC6gpU4FhVPR0BsF-2" value="rutine_exercise" style="swimlane;fontStyle=0;childLayout=stackLayout;horizontal=1;startSize=30;horizontalStack=0;resizeParent=1;resizeParentMax=0;resizeLast=0;collapsible=1;marginBottom=0;whiteSpace=wrap;html=1;fillColor=#f5f5f5;fontColor=#333333;strokeColor=#666666;" vertex="1" parent="1">
          <mxGeometry x="-417" y="979.5" width="140" height="120" as="geometry">
            <mxRectangle x="470" y="190" width="60" height="30" as="alternateBounds" />
          </mxGeometry>
        </mxCell>
        <mxCell id="drKVRC6gpU4FhVPR0BsF-3" value="id" style="text;strokeColor=#9673a6;fillColor=#e1d5e7;align=left;verticalAlign=middle;spacingLeft=4;spacingRight=4;overflow=hidden;points=[[0,0.5],[1,0.5]];portConstraint=eastwest;rotatable=0;whiteSpace=wrap;html=1;" vertex="1" parent="drKVRC6gpU4FhVPR0BsF-2">
          <mxGeometry y="30" width="140" height="30" as="geometry" />
        </mxCell>
        <mxCell id="drKVRC6gpU4FhVPR0BsF-4" value="id_rutine" style="text;strokeColor=#9673a6;fillColor=#e1d5e7;align=left;verticalAlign=middle;spacingLeft=4;spacingRight=4;overflow=hidden;points=[[0,0.5],[1,0.5]];portConstraint=eastwest;rotatable=0;whiteSpace=wrap;html=1;" vertex="1" parent="drKVRC6gpU4FhVPR0BsF-2">
          <mxGeometry y="60" width="140" height="30" as="geometry" />
        </mxCell>
        <mxCell id="sfmUpo5nb_P3Y5WMEgTb-39" value="id_exercise" style="text;strokeColor=#9673a6;fillColor=#e1d5e7;align=left;verticalAlign=middle;spacingLeft=4;spacingRight=4;overflow=hidden;points=[[0,0.5],[1,0.5]];portConstraint=eastwest;rotatable=0;whiteSpace=wrap;html=1;" vertex="1" parent="drKVRC6gpU4FhVPR0BsF-2">
          <mxGeometry y="90" width="140" height="30" as="geometry" />
        </mxCell>
        <mxCell id="drKVRC6gpU4FhVPR0BsF-5" value="" style="endArrow=classic;html=1;rounded=0;entryX=0;entryY=0.5;entryDx=0;entryDy=0;exitX=1.002;exitY=0.687;exitDx=0;exitDy=0;exitPerimeter=0;" edge="1" parent="1" source="drKVRC6gpU4FhVPR0BsF-3" target="fKoAP8AsqQsR1DDhjYJr-19">
          <mxGeometry width="50" height="50" relative="1" as="geometry">
            <mxPoint x="-90" y="990" as="sourcePoint" />
            <mxPoint x="-10" y="950" as="targetPoint" />
            <Array as="points" />
          </mxGeometry>
        </mxCell>
        <mxCell id="ui1NHmLLtX7qCI1cBO4Y-1" value="user_trainer" style="swimlane;fontStyle=0;childLayout=stackLayout;horizontal=1;startSize=30;horizontalStack=0;resizeParent=1;resizeParentMax=0;resizeLast=0;collapsible=1;marginBottom=0;whiteSpace=wrap;html=1;fillColor=#f5f5f5;fontColor=#333333;strokeColor=#666666;" vertex="1" parent="1">
          <mxGeometry x="-60" y="298" width="140" height="120" as="geometry">
            <mxRectangle x="470" y="190" width="60" height="30" as="alternateBounds" />
          </mxGeometry>
        </mxCell>
        <mxCell id="ui1NHmLLtX7qCI1cBO4Y-2" value="id" style="text;align=left;verticalAlign=middle;spacingLeft=4;spacingRight=4;overflow=hidden;points=[[0,0.5],[1,0.5]];portConstraint=eastwest;rotatable=0;whiteSpace=wrap;html=1;fillColor=#e1d5e7;strokeColor=#9673a6;" vertex="1" parent="ui1NHmLLtX7qCI1cBO4Y-1">
          <mxGeometry y="30" width="140" height="30" as="geometry" />
        </mxCell>
        <mxCell id="ui1NHmLLtX7qCI1cBO4Y-3" value="id_user" style="text;align=left;verticalAlign=middle;spacingLeft=4;spacingRight=4;overflow=hidden;points=[[0,0.5],[1,0.5]];portConstraint=eastwest;rotatable=0;whiteSpace=wrap;html=1;fillColor=#e1d5e7;strokeColor=#9673a6;" vertex="1" parent="ui1NHmLLtX7qCI1cBO4Y-1">
          <mxGeometry y="60" width="140" height="30" as="geometry" />
        </mxCell>
        <mxCell id="ui1NHmLLtX7qCI1cBO4Y-4" value="id_trainer" style="text;align=left;verticalAlign=middle;spacingLeft=4;spacingRight=4;overflow=hidden;points=[[0,0.5],[1,0.5]];portConstraint=eastwest;rotatable=0;whiteSpace=wrap;html=1;fillColor=#e1d5e7;strokeColor=#9673a6;" vertex="1" parent="ui1NHmLLtX7qCI1cBO4Y-1">
          <mxGeometry y="90" width="140" height="30" as="geometry" />
        </mxCell>
        <mxCell id="ui1NHmLLtX7qCI1cBO4Y-6" value="" style="endArrow=classic;html=1;rounded=0;exitX=0;exitY=0.5;exitDx=0;exitDy=0;entryX=1;entryY=0.5;entryDx=0;entryDy=0;" edge="1" parent="1" source="ui1NHmLLtX7qCI1cBO4Y-3" target="fKoAP8AsqQsR1DDhjYJr-20">
          <mxGeometry width="50" height="50" relative="1" as="geometry">
            <mxPoint x="-122" y="490" as="sourcePoint" />
            <mxPoint x="-15" y="458" as="targetPoint" />
          </mxGeometry>
        </mxCell>
        <mxCell id="3xoSgwgY9bkzA2TxnGna-1" value="" style="endArrow=classic;html=1;rounded=0;entryX=0;entryY=0.5;entryDx=0;entryDy=0;exitX=1;exitY=1;exitDx=0;exitDy=0;" edge="1" parent="1" source="fKoAP8AsqQsR1DDhjYJr-8" target="fKoAP8AsqQsR1DDhjYJr-31">
          <mxGeometry width="50" height="50" relative="1" as="geometry">
            <mxPoint x="-350" y="930" as="sourcePoint" />
            <mxPoint x="-310" y="1080" as="targetPoint" />
            <Array as="points">
              <mxPoint x="-440" y="930" />
              <mxPoint x="-440" y="1245" />
            </Array>
          </mxGeometry>
        </mxCell>
        <mxCell id="3xoSgwgY9bkzA2TxnGna-2" value="its_a" style="swimlane;fontStyle=0;childLayout=stackLayout;horizontal=1;startSize=30;horizontalStack=0;resizeParent=1;resizeParentMax=0;resizeLast=0;collapsible=1;marginBottom=0;whiteSpace=wrap;html=1;fillColor=#f5f5f5;fontColor=#333333;strokeColor=#666666;" vertex="1" parent="1">
          <mxGeometry x="-620" y="997" width="140" height="120" as="geometry">
            <mxRectangle x="470" y="190" width="60" height="30" as="alternateBounds" />
          </mxGeometry>
        </mxCell>
        <mxCell id="3xoSgwgY9bkzA2TxnGna-3" value="id" style="text;strokeColor=#9673a6;fillColor=#e1d5e7;align=left;verticalAlign=middle;spacingLeft=4;spacingRight=4;overflow=hidden;points=[[0,0.5],[1,0.5]];portConstraint=eastwest;rotatable=0;whiteSpace=wrap;html=1;" vertex="1" parent="3xoSgwgY9bkzA2TxnGna-2">
          <mxGeometry y="30" width="140" height="30" as="geometry" />
        </mxCell>
        <mxCell id="3xoSgwgY9bkzA2TxnGna-4" value="id_rutine" style="text;strokeColor=#9673a6;fillColor=#e1d5e7;align=left;verticalAlign=middle;spacingLeft=4;spacingRight=4;overflow=hidden;points=[[0,0.5],[1,0.5]];portConstraint=eastwest;rotatable=0;whiteSpace=wrap;html=1;" vertex="1" parent="3xoSgwgY9bkzA2TxnGna-2">
          <mxGeometry y="60" width="140" height="30" as="geometry" />
        </mxCell>
        <mxCell id="Akn_ElKq22y6azfKkZYL-4" value="id_rutine_type" style="text;strokeColor=#9673a6;fillColor=#e1d5e7;align=left;verticalAlign=middle;spacingLeft=4;spacingRight=4;overflow=hidden;points=[[0,0.5],[1,0.5]];portConstraint=eastwest;rotatable=0;whiteSpace=wrap;html=1;" vertex="1" parent="3xoSgwgY9bkzA2TxnGna-2">
          <mxGeometry y="90" width="140" height="30" as="geometry" />
        </mxCell>
        <mxCell id="3xoSgwgY9bkzA2TxnGna-6" value="" style="endArrow=classic;html=1;rounded=0;entryX=0.5;entryY=0;entryDx=0;entryDy=0;exitX=0.5;exitY=1;exitDx=0;exitDy=0;" edge="1" parent="1" source="3xoSgwgY9bkzA2TxnGna-2" target="sfmUpo5nb_P3Y5WMEgTb-11">
          <mxGeometry width="50" height="50" relative="1" as="geometry">
            <mxPoint x="-470" y="1150" as="sourcePoint" />
            <mxPoint x="-120" y="1050" as="targetPoint" />
          </mxGeometry>
        </mxCell>
        <mxCell id="Akn_ElKq22y6azfKkZYL-5" value="exercise_progress" style="swimlane;fontStyle=0;childLayout=stackLayout;horizontal=1;startSize=30;horizontalStack=0;resizeParent=1;resizeParentMax=0;resizeLast=0;collapsible=1;marginBottom=0;whiteSpace=wrap;html=1;fillColor=#f5f5f5;fontColor=#333333;strokeColor=#666666;" vertex="1" parent="1">
          <mxGeometry x="340" y="670" width="140" height="120" as="geometry">
            <mxRectangle x="470" y="190" width="60" height="30" as="alternateBounds" />
          </mxGeometry>
        </mxCell>
        <mxCell id="Akn_ElKq22y6azfKkZYL-6" value="id" style="text;strokeColor=#9673a6;fillColor=#e1d5e7;align=left;verticalAlign=middle;spacingLeft=4;spacingRight=4;overflow=hidden;points=[[0,0.5],[1,0.5]];portConstraint=eastwest;rotatable=0;whiteSpace=wrap;html=1;" vertex="1" parent="Akn_ElKq22y6azfKkZYL-5">
          <mxGeometry y="30" width="140" height="30" as="geometry" />
        </mxCell>
        <mxCell id="Akn_ElKq22y6azfKkZYL-7" value="id_exercise" style="text;strokeColor=#9673a6;fillColor=#e1d5e7;align=left;verticalAlign=middle;spacingLeft=4;spacingRight=4;overflow=hidden;points=[[0,0.5],[1,0.5]];portConstraint=eastwest;rotatable=0;whiteSpace=wrap;html=1;" vertex="1" parent="Akn_ElKq22y6azfKkZYL-5">
          <mxGeometry y="60" width="140" height="30" as="geometry" />
        </mxCell>
        <mxCell id="Akn_ElKq22y6azfKkZYL-8" value="id_progress" style="text;strokeColor=#9673a6;fillColor=#e1d5e7;align=left;verticalAlign=middle;spacingLeft=4;spacingRight=4;overflow=hidden;points=[[0,0.5],[1,0.5]];portConstraint=eastwest;rotatable=0;whiteSpace=wrap;html=1;" vertex="1" parent="Akn_ElKq22y6azfKkZYL-5">
          <mxGeometry y="90" width="140" height="30" as="geometry" />
        </mxCell>
        <mxCell id="3xoSgwgY9bkzA2TxnGna-8" value="" style="endArrow=classic;html=1;rounded=0;exitX=1;exitY=0.5;exitDx=0;exitDy=0;entryX=0.5;entryY=0;entryDx=0;entryDy=0;" edge="1" parent="1" source="6YS-4ABOg-kDLMqf2TI8-2" target="Akn_ElKq22y6azfKkZYL-5">
          <mxGeometry width="50" height="50" relative="1" as="geometry">
            <mxPoint x="-130" y="780" as="sourcePoint" />
            <mxPoint x="-80" y="730" as="targetPoint" />
            <Array as="points">
              <mxPoint x="410" y="585" />
            </Array>
          </mxGeometry>
        </mxCell>
        <mxCell id="Akn_ElKq22y6azfKkZYL-11" value="assign_rutine" style="swimlane;fontStyle=0;childLayout=stackLayout;horizontal=1;startSize=30;horizontalStack=0;resizeParent=1;resizeParentMax=0;resizeLast=0;collapsible=1;marginBottom=0;whiteSpace=wrap;html=1;fillColor=#f5f5f5;fontColor=#333333;strokeColor=#666666;" vertex="1" parent="1">
          <mxGeometry x="-500" y="430" width="140" height="150" as="geometry">
            <mxRectangle x="470" y="190" width="60" height="30" as="alternateBounds" />
          </mxGeometry>
        </mxCell>
        <mxCell id="Akn_ElKq22y6azfKkZYL-12" value="id" style="text;strokeColor=#9673a6;fillColor=#e1d5e7;align=left;verticalAlign=middle;spacingLeft=4;spacingRight=4;overflow=hidden;points=[[0,0.5],[1,0.5]];portConstraint=eastwest;rotatable=0;whiteSpace=wrap;html=1;" vertex="1" parent="Akn_ElKq22y6azfKkZYL-11">
          <mxGeometry y="30" width="140" height="30" as="geometry" />
        </mxCell>
        <mxCell id="IxrGfFngIc4FQ2Gh_yyI-1" value="id_user" style="text;strokeColor=#9673a6;fillColor=#e1d5e7;align=left;verticalAlign=middle;spacingLeft=4;spacingRight=4;overflow=hidden;points=[[0,0.5],[1,0.5]];portConstraint=eastwest;rotatable=0;whiteSpace=wrap;html=1;" vertex="1" parent="Akn_ElKq22y6azfKkZYL-11">
          <mxGeometry y="60" width="140" height="30" as="geometry" />
        </mxCell>
        <mxCell id="Akn_ElKq22y6azfKkZYL-13" value="id_trainer" style="text;strokeColor=#9673a6;fillColor=#e1d5e7;align=left;verticalAlign=middle;spacingLeft=4;spacingRight=4;overflow=hidden;points=[[0,0.5],[1,0.5]];portConstraint=eastwest;rotatable=0;whiteSpace=wrap;html=1;" vertex="1" parent="Akn_ElKq22y6azfKkZYL-11">
          <mxGeometry y="90" width="140" height="30" as="geometry" />
        </mxCell>
        <mxCell id="Akn_ElKq22y6azfKkZYL-14" value="Id_rutine" style="text;strokeColor=#9673a6;fillColor=#e1d5e7;align=left;verticalAlign=middle;spacingLeft=4;spacingRight=4;overflow=hidden;points=[[0,0.5],[1,0.5]];portConstraint=eastwest;rotatable=0;whiteSpace=wrap;html=1;" vertex="1" parent="Akn_ElKq22y6azfKkZYL-11">
          <mxGeometry y="120" width="140" height="30" as="geometry" />
        </mxCell>
        <mxCell id="3xoSgwgY9bkzA2TxnGna-17" value="" style="endArrow=classic;html=1;rounded=0;entryX=0.75;entryY=0;entryDx=0;entryDy=0;exitX=0.011;exitY=1.017;exitDx=0;exitDy=0;exitPerimeter=0;" edge="1" parent="1" source="fKoAP8AsqQsR1DDhjYJr-5" target="fKoAP8AsqQsR1DDhjYJr-8">
          <mxGeometry width="50" height="50" relative="1" as="geometry">
            <mxPoint x="-260" y="620" as="sourcePoint" />
            <mxPoint x="-80" y="570" as="targetPoint" />
            <Array as="points">
              <mxPoint x="-260" y="640" />
              <mxPoint x="-260" y="720" />
              <mxPoint x="-515" y="720" />
            </Array>
          </mxGeometry>
        </mxCell>
        <mxCell id="wFH0cCrwJBhisUXVBjvw-23" value="" style="endArrow=classic;html=1;rounded=0;entryX=0;entryY=0.5;entryDx=0;entryDy=0;exitX=0.992;exitY=0.003;exitDx=0;exitDy=0;exitPerimeter=0;" edge="1" parent="1" source="fKoAP8AsqQsR1DDhjYJr-11" target="sfmUpo5nb_P3Y5WMEgTb-16">
          <mxGeometry width="50" height="50" relative="1" as="geometry">
            <mxPoint x="-470" y="840" as="sourcePoint" />
            <mxPoint x="-274" y="841" as="targetPoint" />
            <Array as="points" />
          </mxGeometry>
        </mxCell>
        <mxCell id="SpLKVlyca_5_Ecygh0m2-2" value="" style="endArrow=classic;html=1;rounded=0;entryX=1;entryY=0.5;entryDx=0;entryDy=0;exitX=0.082;exitY=1.034;exitDx=0;exitDy=0;exitPerimeter=0;" edge="1" parent="1" source="fKoAP8AsqQsR1DDhjYJr-19" target="fKoAP8AsqQsR1DDhjYJr-30">
          <mxGeometry width="50" height="50" relative="1" as="geometry">
            <mxPoint x="62" y="1044" as="sourcePoint" />
            <mxPoint x="-10" y="1050" as="targetPoint" />
            <Array as="points">
              <mxPoint x="50" y="1245" />
            </Array>
          </mxGeometry>
        </mxCell>
        <mxCell id="SpLKVlyca_5_Ecygh0m2-5" value="" style="endArrow=classic;html=1;rounded=0;exitX=0;exitY=0.5;exitDx=0;exitDy=0;entryX=0.5;entryY=0;entryDx=0;entryDy=0;" edge="1" parent="1" source="fKoAP8AsqQsR1DDhjYJr-20" target="Akn_ElKq22y6azfKkZYL-11">
          <mxGeometry width="50" height="50" relative="1" as="geometry">
            <mxPoint x="-60" y="560" as="sourcePoint" />
            <mxPoint x="-10" y="510" as="targetPoint" />
            <Array as="points">
              <mxPoint x="-430" y="373" />
            </Array>
          </mxGeometry>
        </mxCell>
        <mxCell id="SpLKVlyca_5_Ecygh0m2-6" value="" style="endArrow=classic;html=1;rounded=0;exitX=1;exitY=0.5;exitDx=0;exitDy=0;entryX=0;entryY=0.5;entryDx=0;entryDy=0;" edge="1" parent="1" source="Akn_ElKq22y6azfKkZYL-14" target="fKoAP8AsqQsR1DDhjYJr-3">
          <mxGeometry width="50" height="50" relative="1" as="geometry">
            <mxPoint x="-60" y="560" as="sourcePoint" />
            <mxPoint x="-190" y="570" as="targetPoint" />
          </mxGeometry>
        </mxCell>
        <mxCell id="IxrGfFngIc4FQ2Gh_yyI-2" value="" style="rounded=0;whiteSpace=wrap;html=1;fillColor=none;strokeColor=#6c8ebf;strokeWidth=3;" vertex="1" parent="1">
          <mxGeometry x="110" y="450" width="400" height="360" as="geometry" />
        </mxCell>
      </root>
    </mxGraphModel>
  </diagram>
</mxfile>
